<?xml version="1.0" encoding="UTF-8" standalone="no"?>
<!DOCTYPE svg PUBLIC "-//W3C//DTD SVG 1.1//EN" "http://www.w3.org/Graphics/SVG/1.1/DTD/svg11.dtd">
<svg xmlns="http://www.w3.org/2000/svg" version="1.1" viewBox="0.00 0.00 1327.00 700.00">
<g stroke-width="2.00" fill="none" stroke-linecap="butt">
<path stroke="#7a7a7e" vector-effect="non-scaling-stroke" d="
  M 860.45 64.67
  C 885.73 69.28 909.70 78.46 929.48 94.88
  C 958.29 118.80 970.52 154.23 968.60 191.14
  C 967.20 217.92 955.61 243.18 939.40 264.91
  C 909.52 304.98 866.32 333.41 820.57 352.88
  Q 784.84 368.08 746.47 373.89
  C 739.85 374.90 731.84 375.44 724.52 376.22
  Q 721.03 376.59 711.32 376.53
  C 693.14 376.41 670.37 367.18 666.42 347.26
  Q 665.34 341.82 666.95 335.98
  C 668.26 331.24 662.72 327.21 658.48 329.01
  C 653.97 330.93 653.92 334.90 653.66 339.20
  Q 652.60 357.17 664.58 369.74
  Q 678.70 384.57 700.44 387.70
  C 709.54 389.02 718.61 388.45 727.83 387.98
  Q 733.28 387.71 736.64 387.33
  C 798.57 380.48 857.28 354.99 905.76 316.53
  C 928.04 298.86 948.95 276.82 963.12 252.00
  Q 987.44 209.38 979.56 160.74
  Q 970.49 104.84 921.59 74.44
  C 900.48 61.31 874.89 53.75 850.27 50.77
  Q 836.59 49.12 830.27 48.89
  C 819.12 48.48 806.06 48.30 794.28 49.42
  C 771.67 51.56 749.50 55.94 728.59 65.13
  Q 668.64 91.49 642.97 154.25
  C 639.39 162.99 651.26 167.59 654.62 159.38
  Q 663.08 138.72 675.11 122.63
  Q 698.76 90.97 735.58 75.56
  Q 754.19 67.78 773.23 64.51
  Q 785.78 62.35 791.91 61.85
  Q 812.95 60.14 835.28 61.52
  C 843.67 62.03 852.25 63.18 860.45 64.67"
/>
<path stroke="#7a7a7e" vector-effect="non-scaling-stroke" d="
  M 780.4569 167.4709
  A 6.17 6.17 0.0 0 0 776.3874 159.7523
  L 776.1581 159.6813
  A 6.17 6.17 0.0 0 0 768.4395 163.7509
  L 711.5631 347.4891
  A 6.17 6.17 0.0 0 0 715.6326 355.2077
  L 715.8619 355.2787
  A 6.17 6.17 0.0 0 0 723.5805 351.2091
  L 780.4569 167.4709"
/>
<path stroke="#7a7a7e" vector-effect="non-scaling-stroke" d="
  M 740.27 499.83
  C 737.86 478.65 723.66 464.51 702.96 459.38
  Q 679.21 453.50 656.80 460.12
  Q 630.32 467.94 618.96 494.05
  Q 617.93 496.43 619.72 498.25
  Q 620.64 499.19 622.80 497.71
  A 2.34 2.31 84.6 0 0 623.65 496.67
  Q 635.93 467.59 667.81 462.71
  Q 680.99 460.69 694.69 462.71
  C 715.39 465.76 731.89 477.33 734.95 499.07
  Q 735.65 504.11 735.51 506.36
  Q 734.62 520.92 725.80 533.00
  C 712.76 550.87 692.89 562.93 671.68 569.61
  Q 657.15 574.19 643.66 573.98
  C 635.96 573.87 626.19 569.68 628.03 560.07
  Q 628.55 557.34 625.78 557.06
  Q 625.56 557.04 625.33 557.08
  Q 622.75 557.52 622.53 560.13
  Q 621.85 568.30 628.09 573.62
  C 633.64 578.35 641.37 579.63 648.76 578.95
  Q 689.21 575.25 719.33 548.05
  C 733.31 535.42 742.46 519.05 740.27 499.83"
/>
<path stroke="#7a7a7e" vector-effect="non-scaling-stroke" d="
  M 668.6425 499.8273
  A 2.54 2.54 0.0 0 0 666.9672 496.6498
  L 666.7761 496.5907
  A 2.54 2.54 0.0 0 0 663.5986 498.2660
  L 643.2775 563.9127
  A 2.54 2.54 0.0 0 0 644.9528 567.0902
  L 645.1439 567.1493
  A 2.54 2.54 0.0 0 0 648.3214 565.4740
  L 668.6425 499.8273"
/>
<path stroke="#7a7a7e" vector-effect="non-scaling-stroke" d="
  M 913.84 557.10
  Q 912.35 561.72 911.08 566.25
  Q 910.72 567.51 910.84 568.82
  A 1.43 1.39 -76.6 0 0 911.48 569.89
  C 913.05 570.91 914.81 570.46 915.91 569.02
  C 920.92 562.49 926.13 555.12 933.85 552.08
  Q 939.02 550.05 941.48 555.41
  C 945.02 563.13 947.34 570.90 957.18 572.20
  Q 964.08 573.12 970.14 569.76
  C 978.67 565.03 986.07 557.45 992.55 550.38
  Q 993.92 548.88 992.50 547.43
  L 992.15 547.07
  Q 990.28 545.16 988.47 547.12
  C 982.82 553.21 967.83 569.56 958.80 567.55
  C 951.86 566.00 949.71 558.67 946.83 552.94
  C 942.57 544.48 932.90 545.90 926.28 550.44
  Q 922.63 552.94 920.11 555.92
  Q 918.83 557.43 919.41 555.54
  Q 921.49 548.78 922.18 541.17
  Q 922.42 538.62 919.94 538.72
  Q 919.81 538.73 919.68 538.72
  Q 917.26 538.65 917.06 541.14
  Q 916.73 545.43 915.59 546.81
  C 905.37 559.26 889.72 571.13 872.60 566.74
  C 865.50 564.92 861.43 560.20 862.90 552.50
  A 0.72 0.72 0.0 0 1 863.74 551.92
  C 869.72 553.02 876.66 553.46 881.93 550.98
  C 887.86 548.20 887.47 541.24 882.60 537.67
  C 876.25 533.01 867.55 536.36 863.15 542.04
  C 858.01 548.64 852.80 555.10 846.04 560.07
  C 837.94 566.00 828.94 564.42 822.90 556.58
  A 0.69 0.69 0.0 0 1 822.84 555.82
  C 824.98 551.96 827.42 545.72 825.94 541.32
  C 824.37 536.65 815.91 536.77 815.06 542.16
  Q 813.94 549.24 816.91 555.47
  Q 817.14 555.95 816.89 556.41
  C 815.03 559.83 808.59 568.49 803.74 567.38
  Q 803.31 567.28 803.00 566.96
  C 798.94 562.79 798.69 553.11 799.78 547.89
  Q 800.29 545.46 800.38 543.18
  Q 800.46 541.30 798.60 541.00
  L 798.25 540.95
  Q 795.60 540.53 795.16 543.55
  Q 794.57 547.63 791.15 551.08
  C 782.41 559.91 770.70 568.56 757.61 567.67
  C 748.67 567.06 740.35 563.30 742.04 552.72
  A 1.01 1.00 -79.4 0 1 743.24 551.89
  C 749.13 553.13 762.48 554.04 765.02 547.11
  Q 766.91 541.94 761.98 537.78
  C 757.07 533.64 749.17 535.68 744.79 539.46
  C 736.29 546.76 732.63 563.14 744.84 569.44
  C 749.83 572.01 754.51 572.40 760.05 572.37
  Q 764.43 572.34 768.14 571.45
  C 777.21 569.27 786.76 563.08 793.96 555.60
  Q 794.48 555.06 794.48 555.81
  Q 794.46 562.69 797.76 568.35
  C 800.51 573.07 805.93 573.42 810.12 570.71
  Q 816.03 566.89 819.49 561.25
  A 0.61 0.61 0.0 0 1 820.48 561.18
  Q 825.98 567.89 834.57 568.46
  C 843.96 569.07 850.67 563.71 857.26 557.19
  Q 857.92 556.54 857.96 557.46
  C 858.35 566.76 866.40 571.57 874.89 572.13
  C 880.31 572.49 885.47 572.56 890.81 570.92
  C 899.53 568.23 906.70 563.17 913.43 556.83
  Q 914.15 556.15 913.84 557.10"
/>
<path stroke="#7a7a7e" vector-effect="non-scaling-stroke" d="
  M 754.73 540.41
  C 750.80 540.50 747.20 543.55 744.72 546.56
  A 0.38 0.38 0.0 0 0 744.94 547.17
  C 748.78 547.90 755.80 548.91 759.17 546.77
  A 2.59 2.58 59.8 0 0 760.06 543.36
  Q 758.44 540.33 754.73 540.41"
/>
<path stroke="#7a7a7e" vector-effect="non-scaling-stroke" d="
  M 879.65 541.66
  C 874.92 538.31 868.58 542.37 865.54 546.57
  A 0.41 0.41 0.0 0 0 865.80 547.21
  C 869.65 547.90 875.79 548.74 879.30 547.11
  C 881.57 546.05 881.48 542.96 879.65 541.66"
/>
<path stroke="#7a7a7e" vector-effect="non-scaling-stroke" d="
  M 819.41 549.71
  A 0.59 0.59 0.0 0 0 820.56 549.81
  L 821.87 544.86
  A 0.59 0.59 0.0 0 0 821.84 544.46
  L 821.34 543.40
  A 0.59 0.59 0.0 0 0 820.66 543.08
  L 819.38 543.40
  A 0.59 0.59 0.0 0 0 818.93 544.02
  L 819.41 549.71"
/>
</g>
<path fill="#000000" d="
  M 260.02 0.00
  L 1327.00 0.00
  L 1327.00 700.00
  L 260.01 700.00
  L 260.02 0.00
  Z
  M 860.45 64.67
  C 885.73 69.28 909.70 78.46 929.48 94.88
  C 958.29 118.80 970.52 154.23 968.60 191.14
  C 967.20 217.92 955.61 243.18 939.40 264.91
  C 909.52 304.98 866.32 333.41 820.57 352.88
  Q 784.84 368.08 746.47 373.89
  C 739.85 374.90 731.84 375.44 724.52 376.22
  Q 721.03 376.59 711.32 376.53
  C 693.14 376.41 670.37 367.18 666.42 347.26
  Q 665.34 341.82 666.95 335.98
  C 668.26 331.24 662.72 327.21 658.48 329.01
  C 653.97 330.93 653.92 334.90 653.66 339.20
  Q 652.60 357.17 664.58 369.74
  Q 678.70 384.57 700.44 387.70
  C 709.54 389.02 718.61 388.45 727.83 387.98
  Q 733.28 387.71 736.64 387.33
  C 798.57 380.48 857.28 354.99 905.76 316.53
  C 928.04 298.86 948.95 276.82 963.12 252.00
  Q 987.44 209.38 979.56 160.74
  Q 970.49 104.84 921.59 74.44
  C 900.48 61.31 874.89 53.75 850.27 50.77
  Q 836.59 49.12 830.27 48.89
  C 819.12 48.48 806.06 48.30 794.28 49.42
  C 771.67 51.56 749.50 55.94 728.59 65.13
  Q 668.64 91.49 642.97 154.25
  C 639.39 162.99 651.26 167.59 654.62 159.38
  Q 663.08 138.72 675.11 122.63
  Q 698.76 90.97 735.58 75.56
  Q 754.19 67.78 773.23 64.51
  Q 785.78 62.35 791.91 61.85
  Q 812.95 60.14 835.28 61.52
  C 843.67 62.03 852.25 63.18 860.45 64.67
  Z
  M 780.4569 167.4709
  A 6.17 6.17 0.0 0 0 776.3874 159.7523
  L 776.1581 159.6813
  A 6.17 6.17 0.0 0 0 768.4395 163.7509
  L 711.5631 347.4891
  A 6.17 6.17 0.0 0 0 715.6326 355.2077
  L 715.8619 355.2787
  A 6.17 6.17 0.0 0 0 723.5805 351.2091
  L 780.4569 167.4709
  Z
  M 740.27 499.83
  C 737.86 478.65 723.66 464.51 702.96 459.38
  Q 679.21 453.50 656.80 460.12
  Q 630.32 467.94 618.96 494.05
  Q 617.93 496.43 619.72 498.25
  Q 620.64 499.19 622.80 497.71
  A 2.34 2.31 84.6 0 0 623.65 496.67
  Q 635.93 467.59 667.81 462.71
  Q 680.99 460.69 694.69 462.71
  C 715.39 465.76 731.89 477.33 734.95 499.07
  Q 735.65 504.11 735.51 506.36
  Q 734.62 520.92 725.80 533.00
  C 712.76 550.87 692.89 562.93 671.68 569.61
  Q 657.15 574.19 643.66 573.98
  C 635.96 573.87 626.19 569.68 628.03 560.07
  Q 628.55 557.34 625.78 557.06
  Q 625.56 557.04 625.33 557.08
  Q 622.75 557.52 622.53 560.13
  Q 621.85 568.30 628.09 573.62
  C 633.64 578.35 641.37 579.63 648.76 578.95
  Q 689.21 575.25 719.33 548.05
  C 733.31 535.42 742.46 519.05 740.27 499.83
  Z
  M 668.6425 499.8273
  A 2.54 2.54 0.0 0 0 666.9672 496.6498
  L 666.7761 496.5907
  A 2.54 2.54 0.0 0 0 663.5986 498.2660
  L 643.2775 563.9127
  A 2.54 2.54 0.0 0 0 644.9528 567.0902
  L 645.1439 567.1493
  A 2.54 2.54 0.0 0 0 648.3214 565.4740
  L 668.6425 499.8273
  Z
  M 913.84 557.10
  Q 912.35 561.72 911.08 566.25
  Q 910.72 567.51 910.84 568.82
  A 1.43 1.39 -76.6 0 0 911.48 569.89
  C 913.05 570.91 914.81 570.46 915.91 569.02
  C 920.92 562.49 926.13 555.12 933.85 552.08
  Q 939.02 550.05 941.48 555.41
  C 945.02 563.13 947.34 570.90 957.18 572.20
  Q 964.08 573.12 970.14 569.76
  C 978.67 565.03 986.07 557.45 992.55 550.38
  Q 993.92 548.88 992.50 547.43
  L 992.15 547.07
  Q 990.28 545.16 988.47 547.12
  C 982.82 553.21 967.83 569.56 958.80 567.55
  C 951.86 566.00 949.71 558.67 946.83 552.94
  C 942.57 544.48 932.90 545.90 926.28 550.44
  Q 922.63 552.94 920.11 555.92
  Q 918.83 557.43 919.41 555.54
  Q 921.49 548.78 922.18 541.17
  Q 922.42 538.62 919.94 538.72
  Q 919.81 538.73 919.68 538.72
  Q 917.26 538.65 917.06 541.14
  Q 916.73 545.43 915.59 546.81
  C 905.37 559.26 889.72 571.13 872.60 566.74
  C 865.50 564.92 861.43 560.20 862.90 552.50
  A 0.72 0.72 0.0 0 1 863.74 551.92
  C 869.72 553.02 876.66 553.46 881.93 550.98
  C 887.86 548.20 887.47 541.24 882.60 537.67
  C 876.25 533.01 867.55 536.36 863.15 542.04
  C 858.01 548.64 852.80 555.10 846.04 560.07
  C 837.94 566.00 828.94 564.42 822.90 556.58
  A 0.69 0.69 0.0 0 1 822.84 555.82
  C 824.98 551.96 827.42 545.72 825.94 541.32
  C 824.37 536.65 815.91 536.77 815.06 542.16
  Q 813.94 549.24 816.91 555.47
  Q 817.14 555.95 816.89 556.41
  C 815.03 559.83 808.59 568.49 803.74 567.38
  Q 803.31 567.28 803.00 566.96
  C 798.94 562.79 798.69 553.11 799.78 547.89
  Q 800.29 545.46 800.38 543.18
  Q 800.46 541.30 798.60 541.00
  L 798.25 540.95
  Q 795.60 540.53 795.16 543.55
  Q 794.57 547.63 791.15 551.08
  C 782.41 559.91 770.70 568.56 757.61 567.67
  C 748.67 567.06 740.35 563.30 742.04 552.72
  A 1.01 1.00 -79.4 0 1 743.24 551.89
  C 749.13 553.13 762.48 554.04 765.02 547.11
  Q 766.91 541.94 761.98 537.78
  C 757.07 533.64 749.17 535.68 744.79 539.46
  C 736.29 546.76 732.63 563.14 744.84 569.44
  C 749.83 572.01 754.51 572.40 760.05 572.37
  Q 764.43 572.34 768.14 571.45
  C 777.21 569.27 786.76 563.08 793.96 555.60
  Q 794.48 555.06 794.48 555.81
  Q 794.46 562.69 797.76 568.35
  C 800.51 573.07 805.93 573.42 810.12 570.71
  Q 816.03 566.89 819.49 561.25
  A 0.61 0.61 0.0 0 1 820.48 561.18
  Q 825.98 567.89 834.57 568.46
  C 843.96 569.07 850.67 563.71 857.26 557.19
  Q 857.92 556.54 857.96 557.46
  C 858.35 566.76 866.40 571.57 874.89 572.13
  C 880.31 572.49 885.47 572.56 890.81 570.92
  C 899.53 568.23 906.70 563.17 913.43 556.83
  Q 914.15 556.15 913.84 557.10
  Z"
/>
<circle fill="#f4f4fc" cx="3.99" cy="48.99" r="2.29"/>
<path fill="#f4f4fc" d="
  M 929.48 94.88
  C 909.70 78.46 885.73 69.28 860.45 64.67
  C 852.25 63.18 843.67 62.03 835.28 61.52
  Q 812.95 60.14 791.91 61.85
  Q 785.78 62.35 773.23 64.51
  Q 754.19 67.78 735.58 75.56
  Q 698.76 90.97 675.11 122.63
  Q 663.08 138.72 654.62 159.38
  C 651.26 167.59 639.39 162.99 642.97 154.25
  Q 668.64 91.49 728.59 65.13
  C 749.50 55.94 771.67 51.56 794.28 49.42
  C 806.06 48.30 819.12 48.48 830.27 48.89
  Q 836.59 49.12 850.27 50.77
  C 874.89 53.75 900.48 61.31 921.59 74.44
  Q 970.49 104.84 979.56 160.74
  Q 987.44 209.38 963.12 252.00
  C 948.95 276.82 928.04 298.86 905.76 316.53
  C 857.28 354.99 798.57 380.48 736.64 387.33
  Q 733.28 387.71 727.83 387.98
  C 718.61 388.45 709.54 389.02 700.44 387.70
  Q 678.70 384.57 664.58 369.74
  Q 652.60 357.17 653.66 339.20
  C 653.92 334.90 653.97 330.93 658.48 329.01
  C 662.72 327.21 668.26 331.24 666.95 335.98
  Q 665.34 341.82 666.42 347.26
  C 670.37 367.18 693.14 376.41 711.32 376.53
  Q 721.03 376.59 724.52 376.22
  C 731.84 375.44 739.85 374.90 746.47 373.89
  Q 784.84 368.08 820.57 352.88
  C 866.32 333.41 909.52 304.98 939.40 264.91
  C 955.61 243.18 967.20 217.92 968.60 191.14
  C 970.52 154.23 958.29 118.80 929.48 94.88
  Z"
/>
<rect fill="#f4f4fc" x="-6.29" y="-102.34" transform="translate(746.01,257.48) rotate(17.2)" width="12.58" height="204.68" rx="6.17"/>
<path fill="#f4f4fc" d="
  M 702.96 459.38
  C 723.66 464.51 737.86 478.65 740.27 499.83
  C 742.46 519.05 733.31 535.42 719.33 548.05
  Q 689.21 575.25 648.76 578.95
  C 641.37 579.63 633.64 578.35 628.09 573.62
  Q 621.85 568.30 622.53 560.13
  Q 622.75 557.52 625.33 557.08
  Q 625.56 557.04 625.78 557.06
  Q 628.55 557.34 628.03 560.07
  C 626.19 569.68 635.96 573.87 643.66 573.98
  Q 657.15 574.19 671.68 569.61
  C 692.89 562.93 712.76 550.87 725.80 533.00
  Q 734.62 520.92 735.51 506.36
  Q 735.65 504.11 734.95 499.07
  C 731.89 477.33 715.39 465.76 694.69 462.71
  Q 680.99 460.69 667.81 462.71
  Q 635.93 467.59 623.65 496.67
  A 2.34 2.31 84.6 0 1 622.80 497.71
  Q 620.64 499.19 619.72 498.25
  Q 617.93 496.43 618.96 494.05
  Q 630.32 467.94 656.80 460.12
  Q 679.21 453.50 702.96 459.38
  Z"
/>
<rect fill="#f4f4fc" x="-2.64" y="-36.90" transform="translate(655.96,531.87) rotate(17.2)" width="5.28" height="73.80" rx="2.54"/>
<path fill="#f4f4fc" d="
  M 913.43 556.83
  C 906.70 563.17 899.53 568.23 890.81 570.92
  C 885.47 572.56 880.31 572.49 874.89 572.13
  C 866.40 571.57 858.35 566.76 857.96 557.46
  Q 857.92 556.54 857.26 557.19
  C 850.67 563.71 843.96 569.07 834.57 568.46
  Q 825.98 567.89 820.48 561.18
  A 0.61 0.61 0.0 0 0 819.49 561.25
  Q 816.03 566.89 810.12 570.71
  C 805.93 573.42 800.51 573.07 797.76 568.35
  Q 794.46 562.69 794.48 555.81
  Q 794.48 555.06 793.96 555.60
  C 786.76 563.08 777.21 569.27 768.14 571.45
  Q 764.43 572.34 760.05 572.37
  C 754.51 572.40 749.83 572.01 744.84 569.44
  C 732.63 563.14 736.29 546.76 744.79 539.46
  C 749.17 535.68 757.07 533.64 761.98 537.78
  Q 766.91 541.94 765.02 547.11
  C 762.48 554.04 749.13 553.13 743.24 551.89
  A 1.01 1.00 -79.4 0 0 742.04 552.72
  C 740.35 563.30 748.67 567.06 757.61 567.67
  C 770.70 568.56 782.41 559.91 791.15 551.08
  Q 794.57 547.63 795.16 543.55
  Q 795.60 540.53 798.25 540.95
  L 798.60 541.00
  Q 800.46 541.30 800.38 543.18
  Q 800.29 545.46 799.78 547.89
  C 798.69 553.11 798.94 562.79 803.00 566.96
  Q 803.31 567.28 803.74 567.38
  C 808.59 568.49 815.03 559.83 816.89 556.41
  Q 817.14 555.95 816.91 555.47
  Q 813.94 549.24 815.06 542.16
  C 815.91 536.77 824.37 536.65 825.94 541.32
  C 827.42 545.72 824.98 551.96 822.84 555.82
  A 0.69 0.69 0.0 0 0 822.90 556.58
  C 828.94 564.42 837.94 566.00 846.04 560.07
  C 852.80 555.10 858.01 548.64 863.15 542.04
  C 867.55 536.36 876.25 533.01 882.60 537.67
  C 887.47 541.24 887.86 548.20 881.93 550.98
  C 876.66 553.46 869.72 553.02 863.74 551.92
  A 0.72 0.72 0.0 0 0 862.90 552.50
  C 861.43 560.20 865.50 564.92 872.60 566.74
  C 889.72 571.13 905.37 559.26 915.59 546.81
  Q 916.73 545.43 917.06 541.14
  Q 917.26 538.65 919.68 538.72
  Q 919.81 538.73 919.94 538.72
  Q 922.42 538.62 922.18 541.17
  Q 921.49 548.78 919.41 555.54
  Q 918.83 557.43 920.11 555.92
  Q 922.63 552.94 926.28 550.44
  C 932.90 545.90 942.57 544.48 946.83 552.94
  C 949.71 558.67 951.86 566.00 958.80 567.55
  C 967.83 569.56 982.82 553.21 988.47 547.12
  Q 990.28 545.16 992.15 547.07
  L 992.50 547.43
  Q 993.92 548.88 992.55 550.38
  C 986.07 557.45 978.67 565.03 970.14 569.76
  Q 964.08 573.12 957.18 572.20
  C 947.34 570.90 945.02 563.13 941.48 555.41
  Q 939.02 550.05 933.85 552.08
  C 926.13 555.12 920.92 562.49 915.91 569.02
  C 914.81 570.46 913.05 570.91 911.48 569.89
  A 1.43 1.39 -76.6 0 1 910.84 568.82
  Q 910.72 567.51 911.08 566.25
  Q 912.35 561.72 913.84 557.10
  Q 914.15 556.15 913.43 556.83
  Z
  M 754.73 540.41
  C 750.80 540.50 747.20 543.55 744.72 546.56
  A 0.38 0.38 0.0 0 0 744.94 547.17
  C 748.78 547.90 755.80 548.91 759.17 546.77
  A 2.59 2.58 59.8 0 0 760.06 543.36
  Q 758.44 540.33 754.73 540.41
  Z
  M 879.65 541.66
  C 874.92 538.31 868.58 542.37 865.54 546.57
  A 0.41 0.41 0.0 0 0 865.80 547.21
  C 869.65 547.90 875.79 548.74 879.30 547.11
  C 881.57 546.05 881.48 542.96 879.65 541.66
  Z
  M 819.41 549.71
  A 0.59 0.59 0.0 0 0 820.56 549.81
  L 821.87 544.86
  A 0.59 0.59 0.0 0 0 821.84 544.46
  L 821.34 543.40
  A 0.59 0.59 0.0 0 0 820.66 543.08
  L 819.38 543.40
  A 0.59 0.59 0.0 0 0 818.93 544.02
  L 819.41 549.71
  Z"
/>
<path fill="#000000" d="
  M 744.72 546.56
  C 747.20 543.55 750.80 540.50 754.73 540.41
  Q 758.44 540.33 760.06 543.36
  A 2.59 2.58 59.8 0 1 759.17 546.77
  C 755.80 548.91 748.78 547.90 744.94 547.17
  A 0.38 0.38 0.0 0 1 744.72 546.56
  Z"
/>
<path fill="#000000" d="
  M 865.54 546.57
  C 868.58 542.37 874.92 538.31 879.65 541.66
  C 881.48 542.96 881.57 546.05 879.30 547.11
  C 875.79 548.74 869.65 547.90 865.80 547.21
  A 0.41 0.41 0.0 0 1 865.54 546.57
  Z"
/>
<path fill="#000000" d="
  M 819.41 549.71
  L 818.93 544.02
  A 0.59 0.59 0.0 0 1 819.38 543.40
  L 820.66 543.08
  A 0.59 0.59 0.0 0 1 821.34 543.40
  L 821.84 544.46
  A 0.59 0.59 0.0 0 1 821.87 544.86
  L 820.56 549.81
  A 0.59 0.59 0.0 0 1 819.41 549.71
  Z"
/>
</svg>
